HIERARCHY
ROOT hip
{
  OFFSET 0 0 0
  CHANNELS 6 Xposition Yposition Zposition Zrotation Yrotation Xrotation
  JOINT abdomen
  {
    OFFSET 0 20.6881 -0.73152
    CHANNELS 3 Zrotation Xrotation Yrotation
    JOINT chest
    {
      OFFSET 0 11.7043 -0.48768
      CHANNELS 3 Zrotation Xrotation Yrotation
      JOINT neck
      {
        OFFSET 0 22.1894 -2.19456
        CHANNELS 3 Zrotation Xrotation Yrotation
        JOINT head
        {
          OFFSET -0.24384 7.07133 1.2192
          CHANNELS 3 Zrotation Xrotation Yrotation
          JOINT leftEye
          {
            OFFSET 4.14528 8.04674 8.04672
            CHANNELS 3 Zrotation Xrotation Yrotation
            End Site
            {
              OFFSET 1 0 0
            }
          }
          JOINT rightEye
          {
            OFFSET -3.6576 8.04674 8.04672
            CHANNELS 3 Zrotation Xrotation Yrotation
            End Site
            {
              OFFSET 1 0 0
            }
          }
        }
      }
      JOINT rCollar
      {
        OFFSET -2.68224 19.2634 -4.8768
        CHANNELS 3 Zrotation Xrotation Yrotation
        JOINT rShldr
        {
          OFFSET -8.77824 -1.95073 1.46304
          CHANNELS 3 Zrotation Xrotation Yrotation
          JOINT rForeArm
          {
            OFFSET -28.1742 -1.7115 0.48768
            CHANNELS 3 Zrotation Xrotation Yrotation
            JOINT rHand
            {
              OFFSET -22.5879 0.773209 7.07136
              CHANNELS 3 Zrotation Xrotation Yrotation
              JOINT rThumb1
              {
                OFFSET -1.2192 -0.487915 3.41376
                CHANNELS 3 Zrotation Xrotation Yrotation
                JOINT rThumb2
                {
                  OFFSET -3.37035 -0.52449 3.41376
                  CHANNELS 3 Zrotation Xrotation Yrotation
                  End Site
                  {
                    OFFSET -1.78271 -1.18214 1.43049
                  }
                }
              }
              JOINT rIndex1
              {
                OFFSET -7.75947 0.938293 5.60832
                CHANNELS 3 Zrotation Xrotation Yrotation
                JOINT rIndex2
                {
                  OFFSET -2.54057 -0.884171 1.56538
                  CHANNELS 3 Zrotation Xrotation Yrotation
                  End Site
                  {
                    OFFSET -1.62519 -0.234802 1.16502
                  }
                }
              }
              JOINT rMid1
              {
                OFFSET -8.24714 1.18213 3.41376
                CHANNELS 3 Zrotation Xrotation Yrotation
                JOINT rMid2
                {
                  OFFSET -3.10165 -0.590103 1.0647
                  CHANNELS 3 Zrotation Xrotation Yrotation
                  End Site
                  {
                    OFFSET -2.48547 -0.328903 0.83742
                  }
                }
              }
              JOINT rRing1
              {
                OFFSET -8.82822 0.546677 1.51678
                CHANNELS 3 Zrotation Xrotation Yrotation
                JOINT rRing2
                {
                  OFFSET -2.60934 -0.819778 -0.0198488
                  CHANNELS 3 Zrotation Xrotation Yrotation
                  End Site
                  {
                    OFFSET -2.33842 -0.294052 0.168128
                  }
                }
              }
              JOINT rPinky1
              {
                OFFSET -8.27202 -0.0477905 -0.4584
                CHANNELS 3 Zrotation Xrotation Yrotation
                JOINT rPinky2
                {
                  OFFSET -1.82734 -0.647385 -0.700984
                  CHANNELS 3 Zrotation Xrotation Yrotation
                  End Site
                  {
                    OFFSET -1.69225 -0.51767 -0.607171
                  }
                }
              }
            }
          }
        }
      }
      JOINT lCollar
      {
        OFFSET 2.68224 19.2634 -4.8768
        CHANNELS 3 Zrotation Xrotation Yrotation
        JOINT lShldr
        {
          OFFSET 8.77824 -1.95073 1.46304
          CHANNELS 3 Zrotation Xrotation Yrotation
          JOINT lForeArm
          {
            OFFSET 28.1742 -1.7115 0.48768
            CHANNELS 3 Zrotation Xrotation Yrotation
            JOINT lHand
            {
              OFFSET 22.5879 0.773209 7.07136
              CHANNELS 3 Zrotation Xrotation Yrotation
              JOINT lThumb1
              {
                OFFSET 1.2192 -0.487915 3.41376
                CHANNELS 3 Zrotation Xrotation Yrotation
                JOINT lThumb2
                {
                  OFFSET 3.37035 -0.52449 3.41376
                  CHANNELS 3 Zrotation Xrotation Yrotation
                  End Site
                  {
                    OFFSET 1.78271 -1.18214 1.43049
                  }
                }
              }
              JOINT lIndex1
              {
                OFFSET 7.75947 0.938293 5.60832
                CHANNELS 3 Zrotation Xrotation Yrotation
                JOINT lIndex2
                {
                  OFFSET 2.54057 -0.884171 1.56538
                  CHANNELS 3 Zrotation Xrotation Yrotation
                  End Site
                  {
                    OFFSET 1.62519 -0.234802 1.16502
                  }
                }
              }
              JOINT lMid1
              {
                OFFSET 8.24714 1.18213 3.41376
                CHANNELS 3 Zrotation Xrotation Yrotation
                JOINT lMid2
                {
                  OFFSET 3.10165 -0.590103 1.0647
                  CHANNELS 3 Zrotation Xrotation Yrotation
                  End Site
                  {
                    OFFSET 2.48547 -0.328903 0.83742
                  }
                }
              }
              JOINT lRing1
              {
                OFFSET 8.82822 0.546677 1.51678
                CHANNELS 3 Zrotation Xrotation Yrotation
                JOINT lRing2
                {
                  OFFSET 2.60934 -0.819778 -0.0198488
                  CHANNELS 3 Zrotation Xrotation Yrotation
                  End Site
                  {
                    OFFSET 2.33842 -0.294052 0.168128
                  }
                }
              }
              JOINT lPinky1
              {
                OFFSET 8.27202 -0.0477905 -0.4584
                CHANNELS 3 Zrotation Xrotation Yrotation
                JOINT lPinky2
                {
                  OFFSET 1.82734 -0.647385 -0.700984
                  CHANNELS 3 Zrotation Xrotation Yrotation
                  End Site
                  {
                    OFFSET 1.69225 -0.51767 -0.607171
                  }
                }
              }
            }
          }
        }
      }
    }
  }
  JOINT rButtock
  {
    OFFSET -8.77824 4.35084 1.2192
    CHANNELS 3 Zrotation Xrotation Yrotation
    JOINT rThigh
    {
      OFFSET 0 -1.70687 -2.19456
      CHANNELS 3 Zrotation Xrotation Yrotation
      JOINT rShin
      {
        OFFSET 0 -36.8199 0.73152
        CHANNELS 3 Zrotation Xrotation Yrotation
        JOINT rFoot
        {
          OFFSET 0.73152 -45.1104 -5.12064
          CHANNELS 3 Zrotation Xrotation Yrotation
          End Site
          {
            OFFSET -1.1221 -3.69964 12.103
          }
        }
      }
    }
  }
  JOINT lButtock
  {
    OFFSET 8.77824 4.35084 1.2192
    CHANNELS 3 Zrotation Xrotation Yrotation
    JOINT lThigh
    {
      OFFSET 0 -1.70687 -2.19456
      CHANNELS 3 Zrotation Xrotation Yrotation
      JOINT lShin
      {
        OFFSET 0 -36.8199 0.73152
        CHANNELS 3 Zrotation Xrotation Yrotation
        JOINT lFoot
        {
          OFFSET -0.73152 -45.1104 -5.12064
          CHANNELS 3 Zrotation Xrotation Yrotation
          End Site
          {
            OFFSET 1.1221 -3.69964 12.103
          }
        }
      }
    }
  }
}
MOTION
Frames:	4
Frame Time:	0.03333
-1.3571 66.6331 12.2054 -141.206989 -83.053238 142.94183 0.464886 10.109351 171.20841 -4.955569 8.409976 -177.582739 -9.848713 19.560674 -75.200874 29.679188 0.797485 84.189843 0.003898 -0.0 -0.002335 -0.000836 -0.0 0.004337 3.771961 -33.701791 -6.515952 -175.118096 -20.4555 103.253103 -164.84639 7.271986 -96.20317 -7.263813 -28.060328 -6.587929 11.109428 -11.092388 -0.63947 1.219563 -7.040369 -9.048876 -10.963616 15.485497 7.148703 -9.46556 23.743984 7.034854 -160.938219 -7.488282 143.366934 -156.74712 13.363455 140.028336 -0.016032 -1.323019 -0.41671 10.174672 3.553112 0.38842 0.099985 0.25828 0.090067 1.391076 -2.961897 -0.915671 -0.163194 -0.990129 0.2177 -77.32863 -20.82241 -62.118806 174.945423 -8.846585 -61.004198 168.858099 4.715118 -141.257964 160.052739 2.213594 -88.878037 -21.800989 -56.282472 -23.513986 0.327486 0.529891 -0.186437 -96.741621 -61.309421 -43.642486 167.376316 -28.008436 -145.268473 4.936054 20.722952 -4.642648 -0.005408 0.605504 -0.190964 -9.18248 12.717524 -1.664227 145.174187 12.066691 141.824461 162.412632 55.863353 146.674117 0.000942 -0.000379 0.000942 -30.218578 -49.144612 -37.598579 -84.048219 53.795514 -2.757572 -5.465502 4.434108 90.73737 -179.99535 75.750021 -0.003826 -164.450624 20.482826 -180.0 -77.442221 -76.574498 -177.944327 169.981702 -37.28553 63.754605
-1.8535 67.9827 12.8009 -139.120574 -83.7866 139.804048 0.193477 11.269428 177.345422 -3.31249 9.248262 175.176378 11.249571 20.348976 104.86286 -26.763347 19.971705 -92.698008 -0.001861 0.0 -0.000431 0.003808 -0.0 -0.001152 2.388496 -17.550787 -3.545322 -18.916179 0.36291 68.877277 174.781946 31.398034 59.204538 -165.620218 13.923395 138.83183 -94.79123 37.828808 54.284182 175.542094 -42.171557 75.551379 -148.886213 -12.609967 120.24432 10.360969 0.844375 -9.686975 -86.295531 60.959743 77.857071 -170.177656 -26.298044 144.092318 -0.002225 -0.018672 -0.004573 -155.442642 -1.618614 172.043727 -77.07147 -51.584845 -75.529938 -93.614767 -51.004674 -93.865842 152.127929 14.113035 -157.556519 16.288142 19.357861 31.054155 45.968352 -23.070419 147.030335 -177.98128 -38.251025 -146.114721 10.203477 9.662003 -2.405687 4.758203 5.727698 -10.013908 134.538771 10.540803 -112.295017 64.286132 56.3086 -45.537505 10.975199 25.790123 -7.6394 163.166266 -4.729183 -143.325595 145.123635 1.121881 179.480039 23.616711 -71.729324 44.760422 -31.506897 83.082724 -6.654041 -2.28147 2.441156 0.259881 0.000388 -0.000473 0.000194 -29.584057 -51.386514 -24.290462 -81.342772 77.678642 164.876335 14.727104 6.722889 -78.063152 -179.998847 75.750115 -0.000789 -166.027832 26.086393 -0.0 -0.863281 80.865322 -83.587631 39.439042 -36.620588 107.620785
-2.2847 69.16449999999999 13.3522 -134.771899 -84.518686 134.593304 1.048171 12.981354 -136.107807 6.774939 7.938813 127.189774 -7.270904 25.70049 -119.836595 30.194762 22.361333 123.017141 0.001555 -0.0 -0.001672 0.00098 -0.0 -0.001984 -152.942219 10.523392 158.535866 -56.536745 -42.514265 -90.495717 -161.295057 -76.6337 -71.992934 -8.037835 -9.258035 -3.801396 -176.598744 -14.212975 89.690849 40.11341 -69.397573 30.503744 -148.885957 -12.609684 120.245095 31.373036 -39.478589 -7.741994 2.099973 -6.305375 -1.082377 -17.98344 42.2857 14.40993 -0.007409 3.555683 1.116161 -156.623381 -19.597149 174.158354 -144.857807 11.079727 -141.543507 -148.247285 13.792657 -142.173655 40.047715 -86.05539 61.579544 120.301219 6.334547 170.70707 -4.640193 44.402014 121.951248 169.626274 5.627189 -141.112814 2.607568 2.554892 -0.457856 139.170922 -43.600776 -117.898734 148.885116 -12.610137 -120.244653 159.565204 -10.94438 -119.457155 160.098335 -4.901429 -142.967825 -2.99441 0.67835 -0.453206 74.84205 72.961259 -92.827891 153.343723 -56.393679 172.45152 -1.482948 4.003392 -1.361547 -1.318088 -2.948561 0.922216 179.997366 75.748408 0.002717 163.625094 15.76601 -70.433116 -97.874947 -11.115845 -0.467137 126.395904 -11.537193 -97.656331 -0.0 -0.001646 -0.001022 16.332825 -45.019673 -0.0 -45.019006 67.870251 5.239028 163.061809 5.979844 -55.512754
-2.6877 70.2535 13.8866 -126.01897 -85.573608 125.328592 -1.717201 12.831402 -172.311908 -0.485453 10.236483 164.093594 1.979879 8.435496 17.982816 -9.191879 -17.098202 -11.102518 0.001645 -0.0 -0.002279 0.001645 -0.0 -0.002279 -153.049741 10.023618 158.668644 33.575573 4.111069 -36.338693 91.203315 -28.021993 -92.784678 -126.622385 62.623207 103.106371 -99.394265 37.101072 57.492207 -178.632262 -38.588688 76.770502 2.325359 -3.867912 -1.259663 -159.28955 -11.172238 110.194456 -6.772683 17.383717 4.417164 -11.33636 33.4263 9.089023 0.002887 0.917702 0.288889 -156.602316 -27.663592 175.090111 -24.991145 -37.658624 -24.060919 -166.699263 71.733233 -147.549954 144.253365 36.997523 -148.758422 35.188368 -3.418279 10.682899 0.04115 -1.488194 121.600853 172.828402 -1.314704 -142.469065 121.365885 30.330566 -71.957966 167.092443 -25.860001 -77.127421 -10.283662 -18.182159 4.584531 -97.443759 -61.730317 -42.441816 141.108032 35.601207 -129.174777 -167.529005 -64.018017 -132.522968 0.014067 -1.323375 0.414441 156.466515 -32.216265 -175.644079 125.806012 -27.876231 123.550553 -10.825612 22.627362 -3.76054 -179.991438 75.749116 -0.005858 163.711319 11.10346 -77.833608 -110.501645 -13.937515 -46.277931 -62.421683 44.822757 137.873241 179.982203 75.749116 0.014643 -167.754939 30.977408 -22.863452 -61.819225 62.448278 -31.856332 112.70291 88.876587 -15.492602
